<?xml version="1.0" encoding="utf-8"?>
<!-- Generator: Adobe Illustrator 21.0.0, SVG Export Plug-In . SVG Version: 6.00 Build 0)  -->
<svg version="1.1" id="flag-icon-css-pa" xmlns="http://www.w3.org/2000/svg" xmlns:xlink="http://www.w3.org/1999/xlink" x="0px"
	 y="0px" viewBox="0 0 640 480" style="enable-background:new 0 0 640 480;" xml:space="preserve">
<style type="text/css">
	.st0{fill:#323841;}
</style>
<g>
	<g>
		<path class="st0" d="M542.5,15.2c-9-12-21-15-36-15H134.9c-15,0-30,3-39,15s-15,24-15,39v371.6c0,15,6,27,15,39c9,9,24,15,39,15
			h371.6c15,0,27-6,39-15c12-12,15-24,15-39V54.2C560.5,39.2,554.5,24.2,542.5,15.2z M347.7,425.8c-9,9-18,12-27,12c-9,0-21-3-27-12
			c-9-9-12-18-12-27s3-21,12-27c6-6,15-12,27-12s21,3,27,12c9,9,12,18,12,27S356.7,419.8,347.7,425.8z M425.6,186.1
			c-9,12-21,30-42,47.9c-12,12-21,21-24,27c-6,3-6,9-9,15s-3,18-3,33l0,0c0,9-3,18-9,21c-6,6-12,6-21,6c-6,0-15-3-18-9
			c-6,0-9-9-9-15v-12c0-18,3-33,9-45c3-9,9-21,18-30c6-6,15-18,30-30s24-21,27-27c3-6,6-12,6-21c0-15-6-27-15-36s-27-18-45-18
			c-15,0-30,6-39,15s-18,24-21,45c0,9-6,15-12,21c-6,9-12,9-21,9c-9,0-15-3-21-9c-6-9-6-18-3-27c3-33,18-59.9,36-77.9
			c21-18,47.9-27,80.9-27c36,0,62.9,9,83.9,30s33,42,33,71.9C437.6,159.1,434.6,174.1,425.6,186.1z"/>
	</g>
</g>
<rect y="0.3" class="st0" width="181" height="479.5"/>
<rect x="474" class="st0" width="166" height="480"/>
</svg>
