<?xml version="1.0" encoding="utf-8"?>
<!-- Generator: Adobe Illustrator 21.0.0, SVG Export Plug-In . SVG Version: 6.00 Build 0)  -->
<svg version="1.1" id="图层_1" xmlns="http://www.w3.org/2000/svg" xmlns:xlink="http://www.w3.org/1999/xlink" x="0px" y="0px"
	 viewBox="0 0 16 16" style="enable-background:new 0 0 16 16;" xml:space="preserve">
<style type="text/css">
	.st0{fill:#323841;}
</style>
<g>
	<g>
		<path class="st0" d="M15.4,0.5C15.1,0.1,14.7,0,14.2,0H1.8C1.3,0,0.8,0.1,0.5,0.5S0,1.3,0,1.8v12.4c0,0.5,0.2,0.9,0.5,1.3
			C0.8,15.8,1.3,16,1.8,16h12.4c0.5,0,0.9-0.2,1.3-0.5c0.4-0.4,0.5-0.8,0.5-1.3V1.8C16,1.3,15.8,0.8,15.4,0.5z M8.9,14.2
			c-0.3,0.3-0.6,0.4-0.9,0.4s-0.7-0.1-0.9-0.4c-0.3-0.3-0.4-0.6-0.4-0.9s0.1-0.7,0.4-0.9C7.3,12.2,7.6,12,8,12s0.7,0.1,0.9,0.4
			c0.3,0.3,0.4,0.6,0.4,0.9S9.2,14,8.9,14.2z M11.5,6.2c-0.3,0.4-0.7,1-1.4,1.6C9.7,8.2,9.4,8.5,9.3,8.7C9.1,8.8,9.1,9,9,9.2
			c-0.1,0.2-0.1,0.6-0.1,1.1v0c0,0.3-0.1,0.6-0.3,0.7c-0.2,0.2-0.4,0.2-0.7,0.2c-0.2,0-0.5-0.1-0.6-0.3C7.1,10.9,7,10.6,7,10.4V10
			c0-0.6,0.1-1.1,0.3-1.5c0.1-0.3,0.3-0.7,0.6-1c0.2-0.2,0.5-0.6,1-1c0.5-0.4,0.8-0.7,0.9-0.9c0.1-0.2,0.2-0.4,0.2-0.7
			c0-0.5-0.2-0.9-0.5-1.2S8.6,3.1,8,3.1c-0.5,0-1,0.2-1.3,0.5C6.4,3.9,6.1,4.4,6,5.1c0,0.3-0.2,0.5-0.4,0.7C5.4,6.1,5.2,6.1,4.9,6.1
			C4.6,6.1,4.4,6,4.2,5.8C4,5.5,4,5.2,4.1,4.9c0.1-1.1,0.6-2,1.2-2.6C6,1.7,6.9,1.4,8,1.4c1.2,0,2.1,0.3,2.8,1
			c0.7,0.7,1.1,1.4,1.1,2.4C11.9,5.3,11.8,5.8,11.5,6.2z"/>
	</g>
</g>
</svg>
