<?xml version="1.0" encoding="utf-8"?>
<!-- Generator: Adobe Illustrator 21.0.0, SVG Export Plug-In . SVG Version: 6.00 Build 0)  -->
<svg version="1.1" id="图层_1" xmlns="http://www.w3.org/2000/svg" xmlns:xlink="http://www.w3.org/1999/xlink" x="0px" y="0px"
	 viewBox="0 0 16 16" style="enable-background:new 0 0 16 16;" xml:space="preserve">
<style type="text/css">
	.st0{fill:#1EBBEE;}
</style>
<g id="layer1" transform="translate(-314.39 -274.4)">
	<path id="svg" class="st0" d="M330.4,282.8c0-1.3-0.3-2.5-0.9-3.5c2.4-5.6-2.6-4.8-2.9-4.8c-1.1,0.2-2.1,0.6-3,1
		c-0.1,0-0.3,0-0.4,0c-3.4,0-6.3,2.4-7,5.7c1.8-2.1,3.1-2.9,3.8-3.2c-0.1,0.1-0.2,0.2-0.4,0.3c0,0-0.1,0.1-0.1,0.1
		c-0.1,0.1-0.2,0.1-0.2,0.2c0,0-0.1,0.1-0.1,0.1c-0.1,0.1-0.1,0.1-0.2,0.2c0,0-0.1,0.1-0.1,0.1c-0.1,0.1-0.1,0.1-0.2,0.2
		c0,0.1-0.1,0.1-0.1,0.2c-0.1,0.1-0.1,0.1-0.2,0.2c0,0.1-0.1,0.1-0.1,0.2c-0.1,0.1-0.1,0.1-0.2,0.2c0,0.1-0.1,0.1-0.1,0.2
		c0,0.1-0.1,0.1-0.1,0.2c0,0.1-0.1,0.1-0.1,0.2c0,0.1-0.1,0.1-0.1,0.2c0,0.1-0.1,0.1-0.1,0.2c0,0-0.1,0.1-0.1,0.1
		c-0.3,0.4-0.5,0.8-0.8,1.2c0,0,0,0,0,0c-0.1,0.1-0.1,0.2-0.2,0.3c0,0,0,0,0,0c-0.1,0.1-0.1,0.2-0.2,0.3c0,0,0,0,0,0
		c-0.1,0.3-0.3,0.5-0.4,0.7c-0.6,1.2-1,2-1,2.1c-2,7.4,4.3,4.3,5.2,3.8c1,0.5,2,0.8,3.2,0.8c3.1,0,5.8-2,6.8-4.9h-3.8
		c-0.6,1-1.6,1.6-2.9,1.6c-1.8,0-3.3-1.4-3.3-3.1h10.3C330.4,283.4,330.4,283.1,330.4,282.8L330.4,282.8z M329,275.6
		c0.6,0.4,1.1,1.1,0.3,3.3c-0.8-1.3-2-2.4-3.5-3C326.5,275.6,328.1,274.9,329,275.6z M315.9,289.3c-0.5-0.5-0.6-1.8,0.5-4.1
		c0.6,1.6,1.7,3,3.1,3.9C318.8,289.5,316.9,290.4,315.9,289.3L315.9,289.3z M320,281.7c0.1-1.7,1.5-3,3.2-3c1.8,0,3.2,1.3,3.2,3H320
		L320,281.7z"/>
</g>
</svg>
