<?xml version="1.0" encoding="utf-8"?>
<!-- Generator: Adobe Illustrator 21.0.0, SVG Export Plug-In . SVG Version: 6.00 Build 0)  -->
<svg version="1.1" id="Capa_1" xmlns="http://www.w3.org/2000/svg" xmlns:xlink="http://www.w3.org/1999/xlink" x="0px" y="0px"
	 viewBox="0 0 16 16" style="enable-background:new 0 0 16 16;" xml:space="preserve">
<style type="text/css">
	.st0{fill:#323841;}
</style>
<g>
	<path class="st0" d="M8,0C3.6,0,0,3.6,0,8s3.6,8,8,8s8-3.6,8-8S12.4,0,8,0z M9.2,13H6.9v-1.9h2.3V13z M11.5,7.3
		c-0.2,0.2-0.6,0.6-1.2,0.9L9.8,8.6C9.5,8.8,9.3,9.1,9.2,9.3c-0.1,0.2-0.1,0.4-0.1,0.8H6.9c0-0.8,0.1-1.3,0.3-1.6
		c0.1-0.3,0.5-0.6,1.1-1l0.6-0.4l0.5-0.4C9.5,6.5,9.6,6.3,9.6,6c0-0.3-0.1-0.7-0.4-0.9C9,4.8,8.6,4.6,8,4.6c-0.6,0-1,0.2-1.3,0.5
		C6.4,5.5,6.3,5.9,6.3,6.2H4C4.1,4.9,4.6,4,5.6,3.5C6.2,3.2,7,3,7.9,3c1.2,0,2.2,0.2,3,0.7C11.6,4.2,12,4.9,12,5.9
		C12,6.5,11.8,6.9,11.5,7.3z"/>
</g>
</svg>
